# xmcd
#
# Track frame offsets:
#	150
#	15094
#	37607
#	55248
#	74149
#	91689
#	114747
#	126921
#	147684
#	166523
#
# Disc length: 2356 seconds
# Revision: 0
# Processed by: cddbd v1.5.2PL0 Copyright (c) Steve Scherf et al.
# Submitted via: dBpowerAMP V12.0
#
DISCID=7d09320a
DTITLE=Oddy and the Blue Grapes - For a while
DYEAR=2007
DGENRE=Blues
TTITLE0=Boogie mile
TTITLE1=Sweet surrender
TTITLE2=Leavin' it up to you
TTITLE3=Broken heart and stolen muffins
TTITLE4=Silver man (to: Johnny Winter)
TTITLE5=Out on the western plain
TTITLE6=These are the days
TTITLE7=A piece of wood
TTITLE8=For a while
TTITLE9=To my old folks
EXTD=
EXTT0=
EXTT1=
EXTT2=
EXTT3=
EXTT4=
EXTT5=
EXTT6=
EXTT7=
EXTT8=
EXTT9=
PLAYORDER=
